<svg width="17" height="17" viewBox="0 0 17 17" fill="none" xmlns="http://www.w3.org/2000/svg">
<path d="M9.71429 14.5714H12.1429V17H9.71429V14.5714ZM14.5714 14.5714H17V17H14.5714V14.5714ZM9.71429 9.71429H12.1429V12.1429H9.71429V9.71429ZM12.1429 12.1429H14.5714V14.5714H12.1429V12.1429ZM14.5714 9.71429H17V12.1429H14.5714V9.71429ZM0 2.42857C0 1.78447 0.255866 1.16676 0.711312 0.711312C1.16676 0.255866 1.78447 0 2.42857 0H4.85714C5.50124 0 6.11896 0.255866 6.5744 0.711312C7.02985 1.16676 7.28571 1.78447 7.28571 2.42857V4.85714C7.28571 5.50124 7.02985 6.11896 6.5744 6.5744C6.11896 7.02985 5.50124 7.28571 4.85714 7.28571H2.42857C1.78447 7.28571 1.16676 7.02985 0.711312 6.5744C0.255866 6.11896 0 5.50124 0 4.85714V2.42857ZM2.42857 1.21429C2.10652 1.21429 1.79766 1.34222 1.56994 1.56994C1.34222 1.79766 1.21429 2.10652 1.21429 2.42857V4.85714C1.21429 5.17919 1.34222 5.48805 1.56994 5.71577C1.79766 5.9435 2.10652 6.07143 2.42857 6.07143H4.85714C5.17919 6.07143 5.48805 5.9435 5.71577 5.71577C5.9435 5.48805 6.07143 5.17919 6.07143 4.85714V2.42857C6.07143 2.10652 5.9435 1.79766 5.71577 1.56994C5.48805 1.34222 5.17919 1.21429 4.85714 1.21429H2.42857ZM2.42857 2.42857H4.85714V4.85714H2.42857V2.42857ZM0 12.1429C0 11.4988 0.255866 10.881 0.711312 10.4256C1.16676 9.97015 1.78447 9.71429 2.42857 9.71429H4.85714C5.50124 9.71429 6.11896 9.97015 6.5744 10.4256C7.02985 10.881 7.28571 11.4988 7.28571 12.1429V14.5714C7.28571 15.2155 7.02985 15.8332 6.5744 16.2887C6.11896 16.7441 5.50124 17 4.85714 17H2.42857C1.78447 17 1.16676 16.7441 0.711312 16.2887C0.255866 15.8332 0 15.2155 0 14.5714V12.1429ZM2.42857 10.9286C2.10652 10.9286 1.79766 11.0565 1.56994 11.2842C1.34222 11.512 1.21429 11.8208 1.21429 12.1429V14.5714C1.21429 14.8935 1.34222 15.2023 1.56994 15.4301C1.79766 15.6578 2.10652 15.7857 2.42857 15.7857H4.85714C5.17919 15.7857 5.48805 15.6578 5.71577 15.4301C5.9435 15.2023 6.07143 14.8935 6.07143 14.5714V12.1429C6.07143 11.8208 5.9435 11.512 5.71577 11.2842C5.48805 11.0565 5.17919 10.9286 4.85714 10.9286H2.42857ZM2.42857 12.1429H4.85714V14.5714H2.42857V12.1429ZM9.71429 2.42857C9.71429 1.78447 9.97015 1.16676 10.4256 0.711312C10.881 0.255866 11.4988 0 12.1429 0H14.5714C15.2155 0 15.8332 0.255866 16.2887 0.711312C16.7441 1.16676 17 1.78447 17 2.42857V4.85714C17 5.50124 16.7441 6.11896 16.2887 6.5744C15.8332 7.02985 15.2155 7.28571 14.5714 7.28571H12.1429C11.4988 7.28571 10.881 7.02985 10.4256 6.5744C9.97015 6.11896 9.71429 5.50124 9.71429 4.85714V2.42857ZM12.1429 1.21429C11.8208 1.21429 11.512 1.34222 11.2842 1.56994C11.0565 1.79766 10.9286 2.10652 10.9286 2.42857V4.85714C10.9286 5.17919 11.0565 5.48805 11.2842 5.71577C11.512 5.9435 11.8208 6.07143 12.1429 6.07143H14.5714C14.8935 6.07143 15.2023 5.9435 15.4301 5.71577C15.6578 5.48805 15.7857 5.17919 15.7857 4.85714V2.42857C15.7857 2.10652 15.6578 1.79766 15.4301 1.56994C15.2023 1.34222 14.8935 1.21429 14.5714 1.21429H12.1429ZM12.1429 2.42857H14.5714V4.85714H12.1429V2.42857Z" fill="white"/>
</svg>
